<svg width="900" height="392" viewBox="0 0 900 392" fill="none" xmlns="http://www.w3.org/2000/svg">
<path d="M415.227 280.077C412.478 280.077 410.289 277.888 410.289 275.14V268.421C410.289 265.672 412.478 263.484 415.227 263.484C417.975 263.484 420.164 265.672 420.164 268.421V275.14C420.164 277.888 417.975 280.077 415.227 280.077Z" fill="#414141"/>
<path d="M438.895 280.077C436.146 280.077 433.958 277.888 433.958 275.14V268.421C433.958 265.672 436.146 263.484 438.895 263.484C441.644 263.484 443.832 265.672 443.832 268.421V275.14C443.832 277.888 441.694 280.077 438.895 280.077Z" fill="#414141"/>
<path d="M462.563 280.077C459.815 280.077 457.626 277.888 457.626 275.14V268.421C457.626 265.672 459.815 263.484 462.563 263.484C465.312 263.484 467.5 265.672 467.5 268.421V275.14C467.551 277.888 465.363 280.077 462.563 280.077Z" fill="#414141"/>
<path d="M486.282 280.077C483.534 280.077 481.345 277.888 481.345 275.14V268.421C481.345 265.672 483.534 263.484 486.282 263.484C489.031 263.484 491.22 265.672 491.22 268.421V275.14C491.22 277.888 489.031 280.077 486.282 280.077Z" fill="#414141"/>
<path d="M517.484 146.568L565.329 72H335.925L383.771 146.568H517.484ZM531.736 86.4554L498.905 133.894H402.4L369.57 86.4554H531.736Z" fill="#414141"/>
<path d="M516.72 156.646H384.585L338.521 253.355H562.988L516.72 156.646ZM400.822 170.898H500.483L528.58 234.776H372.929L400.822 170.898Z" fill="#414141"/>
<path d="M536.673 263.433C531.328 283.385 494.935 299.011 450.653 299.011C406.37 299.011 369.977 283.385 364.633 263.433H335.925L335.111 315.452C335.111 318.404 337.3 321 339.641 321H561.359C563.751 321 565.889 318.251 565.889 315.452L565.278 263.433H536.673Z" fill="#414141"/>
<path d="M481.404 218.2L456.197 178.897C455.281 177.464 453.583 176.58 451.745 176.58C449.907 176.58 448.209 177.464 447.293 178.897L422.086 218.2C421.168 219.631 421.169 221.394 422.087 222.825C423.006 224.256 424.703 225.138 426.539 225.136H476.951C478.788 225.137 480.485 224.256 481.403 222.825C482.321 221.394 482.322 219.631 481.404 218.2ZM454.78 219.066H448.711V212.996H454.78V219.066ZM454.78 188.719V209.961H448.711V188.718L454.78 188.719Z" fill="#9C0B0B"/>
</svg>
